/* XPM */
static char *_41e9c0ccc62432f9cefaa3c3d1bbd14cHH2qHDqn6VupwBS[] = {
/* columns rows colors chars-per-pixel */
"50 50 4 1 ",
"  c gray9",
". c #909090",
"X c #C0C0C0",
"o c white",
/* pixels */
"  ...................XXXXXXXXXXX    ....oooooooooo",
"   ..................XXXXXXXXXXXX         .....ooo",
"       ...............XXXXXXXXXXXX           ...oo",
"..                 ....XXXXXXXXXXXXXXXXXX     ...o",
".....              ......XXXXXXXXXXXXXXXXXX    ...",
".................   ......XXXXXXXXXXXXXXXXXX    ..",
"XX................   ......XXXXXXXXXXXXXXXXXX     ",
"XXX...............    ......XXXXXXXXXXXXXXXXXXX   ",
"XXXXXXXXXX.........     .....XXXXXXXXXXXXXXXXXXXXX",
"XXXXXXXXXXXXXXXXXX...      ...XXXXXXXXXXooooooooXX",
"XXXXXXXXXXXXXXXXXXX....     ..XXXXXXXXooo....ooooX",
"XXXXXXXXXXXXXXXXXXXX......  ...XXXXoo...........oo",
"  XXXXXXXXXXXXXXXXXXX.....  ...XXooo..............",
"    XXXXXXXXXXXXXXXXXX....  ................    ..",
"    XXXXXXXXXXXXXXXXXXX...   ...........          ",
"..   XXXXXXXXXXXXXXXXXX....    ......         X   ",
"..   XXXXXXXXXXXXXXXXXXX....              XXXXXXX.",
"X..   XXXXXXXXXXXXXXXXXXX.....        XXXXXXXXXXXX",
"X..    XXXXXXXXXXXXXXXXXXX.....   XXXXXXXXXXXXXXXX",
"XX..    XXXXXXXXXXXXXXXXXXX....  XXXXXXXXXXXXXXXXX",
"XXX..     XXXXXXXXXXXXXXXXXX..   oXXXXXXXXXXXXXXXX",
"XXXXX..     XXXXXXXXXXXXXXXXX   ooXXXXXXXXXXXXXXXX",
"XXXXXXX.         XXXXXXXXXX     oooXXXXXXXXXXXXXXX",
"XXXXXXXXXX                    ..ooooXXXXXXXXXXXXXX",
"XXXXXXXXXXXXXX               ....ooooXXXXXXXXXXXXX",
"XXXXXXXXXXXXX    .........    ....ooooXXXXXXXXXXXX",
"XXXXXXXXXXXXX  ..........       ...ooooooooXXXXXXX",
"XXXXXXXXXXXX   .........   .o   ...ooooooooooooXXX",
"XXXXXXXXXXX   .......XXX   Xoo  ..............oooo",
"XXX           ....XXXXXX  XXoo   ..............ooo",
"X            ...XXXXXXXX  XXoo   ................o",
"     ..........XXXXXXXXX  XXXoo    ...............",
"   ...........XXXXXXXXXX  XXXXoo              ....",
"  ...........XXXXXXXXXXX  XXXXXooo               .",
" ........XXXXXXXXXXXXXXo   XXXXXoooooooXXXXXX     ",
"....XXXXXXXXXXXXXXXXXXXo   XXXXXXXXXXXXXXXXXXXX   ",
"...XXXXXXXXXXXXXXXXXXXXoo  XXXXXXXXXXXXXXXXXXXXX  ",
"XXXXXXXXXXXXXXXXXXXXXXoo   XXXXXXXXXXXXXXXXXXXXXX ",
"XXXXXXXXXXXXXXXXXXXXXooo     XXXXXXXXXXXXXXXXXXXXX",
"XXXXXXXXXXXXXXXXXXXoooo         XXXXXXXXXXXXXXXXXX",
"XXXXXXXXXXXXXXXXXoooo    ooo      XXXXXXXXXXXXXXXX",
"XXXXXXXXXXXXXXXoooo     oooooo     XXXXXXXXXXXXXXX",
"XXXXXXXXXXXXXXoo      oooXXXXXoo    XXXXXXXXXXXXXX",
"XXXXXXXXXXXX        XXXXXXXXXXXoo    XXXXXXXXXXXXX",
"XXXXXXXXXXX      XXXXXXXXXXXXXXXXo     XXXXXXXXXXX",
"XXXXXXXXXX    XXXXXXXXXXXXXXXXXXXXoo      XXXXXXXX",
"XXXXXXXo    XXXXXXXXXXXXXXXXXXXXXXXooo     XXXXXXX",
"XXXXXXo    XXXXXXXXXXXXXXXXXXXXXXXXXoooo    oXXXXX",
"oXXXXo    XXXXXXXXXXXXXXXXXXXXXXXXXXXoooo    ooXXX",
"ooooo   XXXXXXXXXXXXXXXXXXXXXXXXXXXXXXXooo    oooX"
};
